<svg width="91" height="16" viewBox="0 0 91 16" fill="none" xmlns="http://www.w3.org/2000/svg">
<path d="M80.5129 11.9783V11.3913H90.339V11.9783H80.5129Z" fill="#F1F1F1"/>
<path d="M72.6735 16C72.0938 16 71.63 15.8551 71.2822 15.5652C70.9488 15.2754 70.7822 14.9058 70.7822 14.4565C70.7822 14.0507 70.9271 13.7246 71.217 13.4783C71.5068 13.2319 71.8329 13.1087 72.1952 13.1087C72.5575 13.1087 72.8619 13.1812 73.1083 13.3261C73.3546 13.4855 73.572 13.7101 73.7604 14L73.9126 14.1739C74.2315 14.6087 74.5503 14.6015 74.8691 14.1522C74.9996 13.9348 75.1445 13.6449 75.3039 13.2826C75.4778 12.9348 75.6735 12.4638 75.8909 11.8696L71.6735 1.7826C71.572 1.50724 71.4633 1.28985 71.3474 1.13043C71.2314 0.956515 71.043 0.811588 70.7822 0.695646L70.3909 0.543472V0.32608H75.8039V0.521732L75.3691 0.695646C75.0503 0.797095 74.8836 0.963762 74.8691 1.19565C74.8691 1.41304 74.9271 1.6884 75.043 2.02173L77.3039 7.8913L79.4561 1.95652C79.572 1.62318 79.6155 1.34782 79.5865 1.13043C79.5575 0.898545 79.3764 0.739125 79.0431 0.652168L78.5865 0.543472V0.32608H81.6083V0.543472L81.13 0.695646C80.7967 0.797095 80.5648 0.942023 80.4344 1.13043C80.3039 1.31883 80.1807 1.5797 80.0648 1.91304L76.5648 11.4565C75.9996 12.9783 75.4344 14.1159 74.8691 14.8696C74.3039 15.6232 73.572 16 72.6735 16Z" fill="#F1F1F1"/>
<path d="M60.738 10.7826V10.5652L61.0641 10.4783C61.354 10.3913 61.5496 10.2609 61.6511 10.087C61.767 9.91305 61.825 9.68841 61.825 9.41305V2.6087C61.825 2.28986 61.767 2.05797 61.6511 1.91304C61.5496 1.75362 61.354 1.64493 61.0641 1.58696L60.738 1.5V1.28261L64.4772 0.0217384L64.6946 0.239131L64.8902 2.1087V2.28261C65.0931 1.87681 65.354 1.50725 65.6728 1.17391C66.0062 0.826087 66.3685 0.543479 66.7598 0.326087C67.1656 0.108696 67.5641 0 67.9554 0C68.5062 0 68.9264 0.152174 69.2163 0.456522C69.5062 0.76087 69.6511 1.14493 69.6511 1.6087C69.6511 2.10145 69.5062 2.48551 69.2163 2.76087C68.9409 3.02174 68.6076 3.15218 68.2163 3.15218C67.6076 3.15218 67.0714 2.84783 66.6076 2.23913L66.5641 2.19565C66.4192 1.99276 66.2525 1.88406 66.0641 1.86957C65.8757 1.84058 65.7018 1.92754 65.5424 2.13044C65.3975 2.26087 65.2743 2.42029 65.1728 2.6087C65.0859 2.78261 64.9989 2.98551 64.9119 3.21739V9.28262C64.9119 9.86233 65.1656 10.2246 65.6728 10.3696L66.3685 10.5652V10.7826H60.738Z" fill="#F1F1F1"/>
<path d="M54.3916 11.1087C53.2901 11.1087 52.3336 10.8841 51.522 10.4348C50.7104 9.97102 50.08 9.31885 49.6307 8.47827C49.1959 7.63769 48.9785 6.65218 48.9785 5.52174C48.9785 4.39131 49.2104 3.41305 49.6742 2.58696C50.1524 1.76087 50.7974 1.12319 51.609 0.673913C52.435 0.224638 53.3626 0 54.3916 0C55.4206 0 56.3408 0.224638 57.1524 0.673913C57.964 1.1087 58.6017 1.73913 59.0655 2.56522C59.5437 3.39131 59.7829 4.37681 59.7829 5.52174C59.7829 6.66667 59.5582 7.65943 59.109 8.50001C58.6742 9.32609 58.051 9.97102 57.2394 10.4348C56.4423 10.8841 55.493 11.1087 54.3916 11.1087ZM54.3916 10.6739C54.8988 10.6739 55.3046 10.529 55.609 10.2391C55.9133 9.94928 56.1307 9.43479 56.2611 8.69566C56.4061 7.95653 56.4785 6.91305 56.4785 5.56522C56.4785 4.2029 56.4061 3.15218 56.2611 2.41305C56.1307 1.67391 55.9133 1.15942 55.609 0.869566C55.3046 0.579711 54.8988 0.434783 54.3916 0.434783C53.8843 0.434783 53.4713 0.579711 53.1524 0.869566C52.8481 1.15942 52.6234 1.67391 52.4785 2.41305C52.3481 3.15218 52.2829 4.2029 52.2829 5.56522C52.2829 6.91305 52.3481 7.95653 52.4785 8.69566C52.6234 9.43479 52.8481 9.94928 53.1524 10.2391C53.4713 10.529 53.8843 10.6739 54.3916 10.6739Z" fill="#F1F1F1"/>
<path d="M29.9551 10.7826V10.5652L30.2594 10.4783C30.5348 10.4058 30.7232 10.2826 30.8246 10.1087C30.9406 9.93479 31.0058 9.70291 31.0203 9.41305V2.6087C31.0203 2.28986 30.9696 2.05797 30.8681 1.91304C30.7667 1.75362 30.571 1.64493 30.2812 1.58696L29.9551 1.5V1.28261L33.6725 0.0217384L33.8899 0.239131L34.0638 1.71739C34.542 1.23913 35.0855 0.833334 35.6942 0.5C36.3174 0.166667 36.9623 0 37.629 0C38.3247 0 38.8826 0.144928 39.3029 0.434783C39.7232 0.710146 40.042 1.14493 40.2594 1.73913C40.8247 1.2029 41.4334 0.782609 42.0855 0.47826C42.7522 0.15942 43.3971 0 44.0203 0C45.0493 0 45.8029 0.246377 46.2812 0.739131C46.7739 1.23188 47.0203 2.00725 47.0203 3.06522V9.43479C47.0203 10 47.2812 10.3551 47.8029 10.5L48.0421 10.5652V10.7826H43.0203V10.5652L43.2377 10.5C43.5131 10.4131 43.7015 10.2826 43.8029 10.1087C43.9189 9.93479 43.9768 9.70291 43.9768 9.41305V2.76087C43.9768 2.15218 43.8681 1.73913 43.6507 1.52174C43.4334 1.28986 43.0855 1.17391 42.6073 1.17391C42.2305 1.17391 41.8609 1.26087 41.4986 1.43478C41.1507 1.5942 40.7812 1.84058 40.3899 2.17391C40.4623 2.4058 40.5058 2.65942 40.5203 2.93478C40.5493 3.21015 40.5638 3.5 40.5638 3.80435V9.43479C40.5783 10 40.8391 10.3551 41.3464 10.5L41.542 10.5652V10.7826H36.4986V10.5652L36.8029 10.4783C37.0783 10.3913 37.2667 10.2681 37.3681 10.1087C37.4841 9.93479 37.542 9.70291 37.542 9.41305V2.78261C37.542 2.2029 37.4333 1.78986 37.216 1.54348C37.0131 1.2971 36.658 1.17391 36.1507 1.17391C35.8174 1.17391 35.4841 1.26087 35.1507 1.43478C34.8174 1.5942 34.4696 1.83333 34.1073 2.15218V9.43479C34.1073 10 34.3609 10.3551 34.8681 10.5L35.0638 10.5652V10.7826H29.9551Z" fill="#F1F1F1"/>
<path d="M24.393 0C25.335 0 26.1394 0.195652 26.8061 0.586957C27.4727 0.963769 27.98 1.48551 28.3278 2.15218C28.6901 2.80435 28.8713 3.55073 28.8713 4.39131C28.8713 4.55073 28.864 4.71739 28.8495 4.89131C28.835 5.05073 28.8061 5.19566 28.7626 5.32609H22.2843C22.2988 6.89131 22.5742 8.02175 23.1104 8.7174C23.6611 9.39856 24.4727 9.73914 25.5452 9.73914C26.2698 9.73914 26.8568 9.6232 27.3061 9.39131C27.7553 9.15943 28.1756 8.81885 28.5669 8.36957L28.7843 8.56522C28.335 9.36233 27.7336 9.98551 26.98 10.4348C26.2408 10.8841 25.3495 11.1087 24.3061 11.1087C23.2771 11.1087 22.364 10.8913 21.5669 10.4565C20.7698 10.0073 20.1466 9.36957 19.6974 8.54349C19.2481 7.7174 19.0234 6.73189 19.0234 5.58696C19.0234 4.39855 19.2843 3.39131 19.806 2.56522C20.3278 1.72464 20.9945 1.08696 21.806 0.652175C22.6321 0.217392 23.4945 0 24.393 0ZM24.3278 0.434783C23.9075 0.434783 23.5452 0.565218 23.2408 0.826087C22.951 1.07246 22.7191 1.52174 22.5452 2.17391C22.3858 2.8116 22.2988 3.71739 22.2843 4.89131H26.0017C26.1466 3.3116 26.0887 2.17391 25.8278 1.47826C25.5669 0.782609 25.0669 0.434783 24.3278 0.434783Z" fill="#F1F1F1"/>
<path d="M0 10.7826V10.5652L0.304348 10.4783C0.579711 10.4058 0.768117 10.2826 0.869566 10.1087C0.985508 9.93479 1.05073 9.70291 1.06522 9.41305V2.6087C1.06522 2.28986 1.01449 2.05797 0.913044 1.91304C0.811595 1.75362 0.615943 1.64493 0.326087 1.58696L0 1.5V1.28261L3.71739 0.0217384L3.93479 0.239131L4.1087 1.71739C4.58696 1.23913 5.13044 0.833334 5.73914 0.5C6.36232 0.166667 7.00725 0 7.67392 0C8.36957 0 8.92754 0.144928 9.34783 0.434783C9.76812 0.710146 10.087 1.14493 10.3044 1.73913C10.8696 1.2029 11.4783 0.782609 12.1304 0.47826C12.7971 0.15942 13.442 0 14.0652 0C15.0942 0 15.8478 0.246377 16.3261 0.739131C16.8189 1.23188 17.0652 2.00725 17.0652 3.06522V9.43479C17.0652 10 17.3261 10.3551 17.8478 10.5L18.087 10.5652V10.7826H13.0652V10.5652L13.2826 10.5C13.558 10.4131 13.7464 10.2826 13.8478 10.1087C13.9638 9.93479 14.0218 9.70291 14.0218 9.41305V2.76087C14.0218 2.15218 13.9131 1.73913 13.6957 1.52174C13.4783 1.28986 13.1304 1.17391 12.6522 1.17391C12.2754 1.17391 11.9058 1.26087 11.5435 1.43478C11.1957 1.5942 10.8261 1.84058 10.4348 2.17391C10.5073 2.4058 10.5507 2.65942 10.5652 2.93478C10.5942 3.21015 10.6087 3.5 10.6087 3.80435V9.43479C10.6232 10 10.8841 10.3551 11.3913 10.5L11.587 10.5652V10.7826H6.54348V10.5652L6.84783 10.4783C7.12319 10.3913 7.3116 10.2681 7.41305 10.1087C7.52899 9.93479 7.58696 9.70291 7.58696 9.41305V2.78261C7.58696 2.2029 7.47827 1.78986 7.26088 1.54348C7.05798 1.2971 6.7029 1.17391 6.19566 1.17391C5.86232 1.17391 5.52899 1.26087 5.19566 1.43478C4.86232 1.5942 4.5145 1.83333 4.15218 2.15218V9.43479C4.15218 10 4.4058 10.3551 4.91305 10.5L5.1087 10.5652V10.7826H0Z" fill="#F1F1F1"/>
</svg>
